<svg width="372" height="1743" viewBox="0 0 372 1743" fill="none" xmlns="http://www.w3.org/2000/svg">
<path d="M174.957 57L187.992 1743C101.559 1683.57 69.0423 1484.15 68.9922 1483.84L50.9922 57H174.957ZM320.496 57L298.492 1495.44C298.492 1495.44 288.492 1678.21 187.996 1743L174.961 57H320.496Z" fill="url(#paint0_linear_816_97)"/>
<path d="M0 35.5441C0 16.9619 16.7209 2.8491 35.0391 5.97035L174.144 29.6726C177.36 30.2205 180.643 30.2403 183.866 29.7311L337.317 5.48097C355.527 2.60321 372 16.6772 372 35.1132V59.8872C372 74.4193 361.584 86.8619 347.279 89.419L184.485 118.519C180.859 119.168 177.145 119.143 173.529 118.445L24.3224 89.6878C10.2029 86.9665 0 74.6093 0 60.23V35.5441Z" fill="url(#paint1_linear_816_97)"/>
<rect x="26" y="404" width="320" height="52" rx="26" fill="#FFA539"/>
<rect x="34" y="845" width="303" height="52" rx="26" fill="#FFA539"/>
<rect x="48" y="1286" width="281" height="52" rx="26" fill="#FFA539"/>
<defs>
<linearGradient id="paint0_linear_816_97" x1="119.491" y1="57" x2="119.491" y2="1743.01" gradientUnits="userSpaceOnUse">
<stop stop-color="#AB0C0E"/>
<stop offset="1" stop-color="#F42527"/>
</linearGradient>
<linearGradient id="paint1_linear_816_97" x1="0" y1="42.5" x2="372" y2="42.5" gradientUnits="userSpaceOnUse">
<stop offset="1" stop-color="#BA6602"/>
</linearGradient>
</defs>
</svg>
