<svg viewBox="0 0 900 120" xmlns="http://www.w3.org/2000/svg">
  <defs>
    <linearGradient id="bladeGrad" x1="0" y1="0" x2="0" y2="1">
      <stop offset="0%" stopColor="#d6dae0" />
      <stop offset="25%" stopColor="#f0f2f5" />
      <stop offset="50%" stopColor="#c8cdd4" />
      <stop offset="75%" stopColor="#e8eaed" />
      <stop offset="100%" stopColor="#b0b6bf" />
    </linearGradient>
    <linearGradient id="bladeEdge" x1="0" y1="0" x2="1" y2="0">
      <stop offset="0%" stopColor="#ffffff" stopOpacity="0.9" />
      <stop offset="100%" stopColor="#c0c4ca" stopOpacity="0.5" />
    </linearGradient>
    <linearGradient id="goldSword" x1="0" y1="0" x2="0" y2="1">
      <stop offset="0%" stopColor="#f4d03f" />
      <stop offset="40%" stopColor="#daa520" />
      <stop offset="100%" stopColor="#8b6914" />
    </linearGradient>
    <linearGradient id="gripGrad" x1="0" y1="0" x2="0" y2="1">
      <stop offset="0%" stopColor="#5c3a21" />
      <stop offset="50%" stopColor="#3e2413" />
      <stop offset="100%" stopColor="#2a1509" />
    </linearGradient>
    <filter id="bladeShadow">
      <feDropShadow dx="0" dy="2" stdDeviation="3" floodColor="#000" floodOpacity="0.4" />
    </filter>
  </defs>

  <!-- Blade body — broad straight sword shape (not pointed) -->
  <polygon
    points="40,38 42,36 470,36 475,38 475,82 470,84 42,84 40,82"
    fill="url(#bladeGrad)"
    filter="url(#bladeShadow)"
  />
  <!-- Blade tip — slightly rounded/clipped tip like a real broad sword -->
  <polygon
    points="40,38 40,82 22,68 18,60 22,52"
    fill="url(#bladeGrad)"
    filter="url(#bladeShadow)"
  />
  <!-- Blade top edge highlight -->
  <line x1="42" y1="36" x2="470" y2="36" stroke="url(#bladeEdge)" strokeWidth="1.5" />
  <!-- Fuller (blood groove) -->
  <rect x="80" y="53" width="380" height="5" rx="2" fill="#8a8f96" opacity="0.3" />
  <rect x="82" y="54" width="376" height="3" rx="1.5" fill="#bfc3c9" opacity="0.25" />
  <!-- Second fuller line -->
  <rect x="80" y="62" width="380" height="5" rx="2" fill="#8a8f96" opacity="0.2" />

  <!-- Cross-guard -->
  <rect x="475" y="18" width="20" height="84" rx="5" fill="url(#goldSword)" />
  <rect x="478" y="21" width="14" height="78" rx="4" fill="#b8860b" opacity="0.4" />
  <!-- Cross-guard engraving lines -->
  <line x1="482" y1="24" x2="482" y2="96" stroke="#f4d03f" strokeWidth="0.6" opacity="0.5" />
  <line x1="488" y1="24" x2="488" y2="96" stroke="#f4d03f" strokeWidth="0.6" opacity="0.5" />
  <!-- Gems on cross-guard -->
  <circle cx="485" cy="30" r="5" fill="#8b0000" />
  <circle cx="485" cy="30" r="3" fill="#c41e3a" opacity="0.7" />
  <circle cx="485" cy="90" r="5" fill="#8b0000" />
  <circle cx="485" cy="90" r="3" fill="#c41e3a" opacity="0.7" />

  <!-- Grip -->
  <rect x="495" y="42" width="140" height="36" rx="7" fill="url(#gripGrad)" />
  <!-- Grip wrapping pattern -->
  <line x1="504" y1="42" x2="512" y2="78" stroke="#1a0e06" strokeWidth="2.5" opacity="0.45" />
  <line x1="517" y1="42" x2="525" y2="78" stroke="#1a0e06" strokeWidth="2.5" opacity="0.45" />
  <line x1="530" y1="42" x2="538" y2="78" stroke="#1a0e06" strokeWidth="2.5" opacity="0.45" />
  <line x1="543" y1="42" x2="551" y2="78" stroke="#1a0e06" strokeWidth="2.5" opacity="0.45" />
  <line x1="556" y1="42" x2="564" y2="78" stroke="#1a0e06" strokeWidth="2.5" opacity="0.45" />
  <line x1="569" y1="42" x2="577" y2="78" stroke="#1a0e06" strokeWidth="2.5" opacity="0.45" />
  <line x1="582" y1="42" x2="590" y2="78" stroke="#1a0e06" strokeWidth="2.5" opacity="0.45" />
  <line x1="595" y1="42" x2="603" y2="78" stroke="#1a0e06" strokeWidth="2.5" opacity="0.45" />
  <line x1="608" y1="42" x2="616" y2="78" stroke="#1a0e06" strokeWidth="2.5" opacity="0.45" />
  <line x1="621" y1="42" x2="629" y2="78" stroke="#1a0e06" strokeWidth="2.5" opacity="0.45" />
  <!-- Grip leather texture overlay -->
  <rect x="495" y="42" width="140" height="36" rx="7" fill="rgba(0,0,0,0.15)" />

  <!-- Pommel -->
  <ellipse cx="648" cy="60" rx="18" ry="22" fill="url(#goldSword)" />
  <ellipse cx="648" cy="60" rx="13" ry="16" fill="#b8860b" opacity="0.3" />
  <circle cx="648" cy="60" r="7" fill="#8b0000" />
  <circle cx="648" cy="60" r="4" fill="#c41e3a" opacity="0.6" />
  <!-- Pommel ring -->
  <ellipse cx="648" cy="60" rx="18" ry="22" fill="none" stroke="#f4d03f" strokeWidth="1" opacity="0.5" />
</svg>